<svg id="svg" version="1.1" xmlns="http://www.w3.org/2000/svg" xmlns:xlink="http://www.w3.org/1999/xlink" width="400" height="315.1832460732984" viewBox="0, 0, 400,315.1832460732984"><g id="svgg"><path id="path0" d="M128.381 93.302 C 128.238 93.849,127.951 93.932,126.204 93.932 C 124.626 93.932,124.192 94.034,124.192 94.405 C 124.192 94.735,123.860 94.878,123.089 94.878 C 122.305 94.878,121.986 95.018,121.986 95.364 C 121.986 95.632,121.809 95.828,121.592 95.800 C 119.958 95.588,118.834 95.855,118.834 96.454 C 118.834 96.944,118.624 97.084,117.888 97.084 C 117.258 97.084,116.942 97.242,116.942 97.557 C 116.942 97.887,116.610 98.030,115.839 98.030 C 115.069 98.030,114.736 98.173,114.736 98.503 C 114.736 98.903,114.179 99.071,113.267 98.947 C 113.153 98.932,112.933 99.145,112.779 99.420 C 112.624 99.696,112.293 99.921,112.041 99.921 C 111.790 99.921,111.584 100.205,111.584 100.552 C 111.584 101.009,111.374 101.182,110.818 101.182 C 110.397 101.182,109.840 101.395,109.580 101.655 C 109.320 101.915,108.955 102.128,108.770 102.128 C 108.584 102.128,108.432 102.340,108.432 102.600 C 108.432 102.861,108.219 103.073,107.959 103.073 C 107.696 103.073,107.486 103.353,107.486 103.704 C 107.486 104.124,107.276 104.334,106.856 104.334 C 106.506 104.334,106.225 104.544,106.225 104.807 C 106.225 105.067,106.013 105.280,105.753 105.280 C 105.493 105.280,105.280 105.493,105.280 105.753 C 105.280 106.013,105.067 106.225,104.807 106.225 C 104.544 106.225,104.334 106.506,104.334 106.856 C 104.334 107.276,104.124 107.486,103.704 107.486 C 103.353 107.486,103.073 107.696,103.073 107.959 C 103.073 108.219,102.861 108.432,102.600 108.432 C 102.340 108.432,102.128 108.645,102.128 108.905 C 102.128 109.165,101.915 109.377,101.655 109.377 C 101.392 109.377,101.182 109.658,101.182 110.008 C 101.182 110.428,100.972 110.638,100.552 110.638 C 100.205 110.638,99.921 110.836,99.921 111.077 C 99.921 111.319,99.708 111.598,99.448 111.698 C 99.172 111.804,98.976 112.276,98.976 112.835 C 98.976 113.474,98.819 113.790,98.503 113.790 C 98.243 113.790,98.030 114.003,98.030 114.263 C 98.030 114.526,97.750 114.736,97.400 114.736 C 96.889 114.736,96.769 114.946,96.769 115.839 C 96.769 116.610,96.627 116.942,96.296 116.942 C 95.981 116.942,95.823 117.258,95.823 117.888 C 95.823 118.519,95.666 118.834,95.351 118.834 C 95.020 118.834,94.878 119.166,94.878 119.937 C 94.878 120.707,94.735 121.040,94.405 121.040 C 94.075 121.040,93.932 121.373,93.932 122.143 C 93.932 123.037,93.812 123.247,93.302 123.247 C 92.755 123.247,92.671 123.457,92.671 124.823 C 92.671 126.013,92.556 126.399,92.199 126.399 C 91.827 126.399,91.726 126.837,91.726 128.448 C 91.726 130.059,91.625 130.496,91.253 130.496 C 90.872 130.496,90.780 130.984,90.780 132.997 C 90.780 135.220,90.710 135.519,90.150 135.697 C 89.548 135.888,89.519 136.174,89.519 142.023 C 89.519 147.938,89.541 148.148,90.150 148.148 C 90.847 148.148,91.004 148.636,90.386 148.885 C 90.071 149.012,90.071 149.049,90.386 149.069 C 90.668 149.087,90.780 149.853,90.780 151.773 C 90.780 153.944,90.870 154.452,91.253 154.452 C 91.625 154.452,91.726 154.890,91.726 156.501 C 91.726 158.112,91.827 158.550,92.199 158.550 C 92.548 158.550,92.671 158.916,92.671 159.950 C 92.671 160.720,92.837 161.452,93.040 161.578 C 93.288 161.731,93.343 161.634,93.208 161.281 C 93.076 160.939,93.167 160.757,93.469 160.757 C 93.815 160.757,93.932 161.157,93.932 162.333 C 93.932 163.523,94.048 163.909,94.405 163.909 C 94.721 163.909,94.878 164.225,94.878 164.864 C 94.878 165.423,95.074 165.895,95.351 166.001 C 95.611 166.101,95.823 166.514,95.823 166.918 C 95.823 167.323,95.989 167.756,96.192 167.882 C 96.440 168.035,96.495 167.938,96.360 167.585 C 96.249 167.297,96.296 167.061,96.464 167.061 C 96.632 167.061,96.769 167.499,96.769 168.036 C 96.769 168.746,96.940 169.056,97.400 169.176 C 97.846 169.293,98.030 169.606,98.030 170.250 C 98.030 170.847,98.192 171.158,98.503 171.158 C 98.765 171.158,98.976 171.439,98.976 171.789 C 98.976 172.139,99.186 172.419,99.448 172.419 C 99.708 172.419,99.921 172.632,99.921 172.892 C 99.921 173.155,100.201 173.365,100.552 173.365 C 101.042 173.365,101.182 173.575,101.182 174.310 C 101.182 174.941,101.340 175.256,101.655 175.256 C 101.918 175.256,102.128 175.536,102.128 175.887 C 102.128 176.237,102.338 176.517,102.600 176.517 C 102.861 176.517,103.073 176.730,103.073 176.990 C 103.073 177.252,103.353 177.463,103.704 177.463 C 104.054 177.463,104.334 177.673,104.334 177.935 C 104.334 178.195,104.547 178.408,104.807 178.408 C 105.070 178.408,105.280 178.688,105.280 179.039 C 105.280 179.389,105.490 179.669,105.753 179.669 C 106.013 179.669,106.225 179.882,106.225 180.142 C 106.225 180.405,106.506 180.615,106.856 180.615 C 107.206 180.615,107.486 180.825,107.486 181.087 C 107.486 181.348,107.699 181.560,107.959 181.560 C 108.222 181.560,108.432 181.840,108.432 182.191 C 108.432 182.541,108.642 182.821,108.905 182.821 C 109.165 182.821,109.377 183.034,109.377 183.294 C 109.377 183.711,112.740 183.767,137.746 183.767 L 166.115 183.767 166.115 182.664 C 166.115 181.893,166.258 181.560,166.588 181.560 C 166.903 181.560,167.061 181.245,167.061 180.615 C 167.061 179.984,167.218 179.669,167.533 179.669 C 167.864 179.669,168.006 179.336,168.006 178.566 C 168.006 177.673,168.126 177.463,168.637 177.463 C 169.147 177.463,169.267 177.252,169.267 176.359 C 169.267 175.589,169.410 175.256,169.740 175.256 C 170.000 175.256,170.213 175.043,170.213 174.783 C 170.213 174.523,170.426 174.310,170.686 174.310 C 171.001 174.310,171.158 173.995,171.158 173.365 C 171.158 172.734,171.316 172.419,171.631 172.419 C 171.958 172.419,172.104 172.091,172.104 171.353 C 172.104 170.551,172.261 170.245,172.734 170.121 C 173.193 170.001,173.365 169.691,173.365 168.981 C 173.365 168.325,173.519 168.006,173.838 168.006 C 174.153 168.006,174.310 167.691,174.310 167.061 C 174.310 166.430,174.468 166.115,174.783 166.115 C 175.114 166.115,175.256 165.782,175.256 165.012 C 175.256 164.140,175.381 163.909,175.852 163.909 C 176.237 163.909,176.524 163.607,176.662 163.058 C 176.829 162.391,176.938 162.306,177.164 162.664 C 177.369 162.988,177.454 162.778,177.458 161.939 C 177.461 161.100,177.600 160.757,177.935 160.757 C 178.266 160.757,178.408 160.424,178.408 159.653 C 178.408 158.760,178.528 158.550,179.039 158.550 C 179.529 158.550,179.669 158.340,179.669 157.604 C 179.669 156.974,179.827 156.659,180.142 156.659 C 180.405 156.659,180.615 156.379,180.615 156.028 C 180.615 155.678,180.825 155.398,181.087 155.398 C 181.348 155.398,181.560 155.185,181.560 154.925 C 181.560 154.662,181.840 154.452,182.191 154.452 C 182.541 154.452,182.821 154.242,182.821 153.980 C 182.821 153.596,183.329 153.507,185.500 153.507 C 187.672 153.507,188.180 153.596,188.180 153.980 C 188.180 154.240,188.392 154.452,188.652 154.452 C 188.913 154.452,189.125 154.665,189.125 154.925 C 189.125 155.185,189.338 155.398,189.598 155.398 C 189.914 155.398,190.071 155.714,190.071 156.353 C 190.071 156.912,190.267 157.384,190.544 157.490 C 190.818 157.596,191.017 158.067,191.017 158.613 C 191.017 159.290,191.194 159.601,191.647 159.720 C 192.138 159.848,192.277 160.149,192.277 161.086 C 192.277 161.747,192.490 162.500,192.750 162.760 C 193.010 163.020,193.223 163.598,193.223 164.044 C 193.223 164.554,193.398 164.854,193.696 164.854 C 194.047 164.854,194.169 165.225,194.169 166.302 C 194.169 167.485,194.284 167.780,194.799 167.915 C 195.273 168.039,195.429 168.345,195.429 169.146 C 195.429 169.884,195.575 170.213,195.902 170.213 C 196.260 170.213,196.375 170.598,196.375 171.789 C 196.375 172.980,196.491 173.365,196.848 173.365 C 197.183 173.365,197.322 173.708,197.326 174.547 C 197.331 175.807,197.685 176.638,198.144 176.465 C 198.298 176.407,198.468 176.820,198.523 177.384 C 198.584 178.018,198.794 178.408,199.074 178.408 C 199.408 178.408,199.527 178.824,199.527 179.984 C 199.527 181.175,199.643 181.560,200.000 181.560 C 200.330 181.560,200.473 181.893,200.473 182.664 C 200.473 183.557,200.593 183.767,201.103 183.767 C 201.650 183.767,201.734 183.977,201.734 185.343 C 201.734 186.534,201.849 186.919,202.206 186.919 C 202.537 186.919,202.679 187.252,202.679 188.022 C 202.679 188.793,202.822 189.125,203.152 189.125 C 203.493 189.125,203.625 189.475,203.625 190.383 C 203.625 191.300,203.796 191.748,204.255 192.035 C 204.638 192.275,204.886 192.770,204.886 193.299 C 204.886 193.862,205.053 194.169,205.359 194.169 C 205.716 194.169,205.831 194.554,205.831 195.745 C 205.831 196.935,205.947 197.321,206.304 197.321 C 206.654 197.321,206.777 197.688,206.777 198.739 C 206.777 199.882,206.884 200.157,207.329 200.153 C 207.800 200.149,207.811 200.104,207.407 199.842 C 207.003 199.581,207.015 199.536,207.486 199.532 C 207.939 199.528,208.038 199.811,208.038 201.103 C 208.038 202.294,208.153 202.679,208.511 202.679 C 208.861 202.679,208.983 203.048,208.983 204.108 C 208.983 205.086,209.132 205.593,209.456 205.717 C 209.726 205.821,209.929 206.291,209.929 206.811 C 209.929 207.512,210.074 207.723,210.559 207.723 C 211.070 207.723,211.190 207.933,211.190 208.826 C 211.190 209.923,211.197 209.929,212.608 209.929 C 214.019 209.929,214.027 209.923,214.027 208.826 C 214.027 207.933,214.147 207.723,214.657 207.723 C 215.142 207.723,215.288 207.512,215.288 206.811 C 215.288 206.291,215.491 205.821,215.760 205.717 C 216.037 205.611,216.233 205.139,216.233 204.580 C 216.233 203.941,216.390 203.625,216.706 203.625 C 217.017 203.625,217.179 203.314,217.179 202.716 C 217.179 202.072,217.363 201.759,217.809 201.642 C 218.268 201.522,218.440 201.212,218.440 200.502 C 218.440 199.846,218.594 199.527,218.913 199.527 C 219.243 199.527,219.385 199.194,219.385 198.424 C 219.385 197.653,219.528 197.321,219.858 197.321 C 220.118 197.321,220.331 197.108,220.331 196.848 C 220.331 196.585,220.611 196.375,220.961 196.375 C 221.308 196.375,221.575 196.269,221.554 196.139 C 221.400 195.158,221.656 194.169,222.065 194.169 C 222.376 194.169,222.537 193.857,222.537 193.257 C 222.537 192.737,222.741 192.267,223.010 192.163 C 223.287 192.057,223.483 191.585,223.483 191.026 C 223.483 190.281,223.622 190.071,224.113 190.071 C 224.624 190.071,224.744 189.861,224.744 188.968 C 224.744 188.197,224.886 187.864,225.217 187.864 C 225.532 187.864,225.690 187.549,225.690 186.919 C 225.690 186.083,225.797 185.973,226.614 185.973 C 227.261 185.973,227.598 185.784,227.738 185.343 C 227.879 184.901,228.215 184.712,228.863 184.712 C 229.474 184.712,229.787 184.552,229.787 184.240 C 229.787 183.823,233.027 183.767,257.053 183.767 C 281.079 183.767,284.318 183.711,284.318 183.294 C 284.318 183.034,284.531 182.821,284.791 182.821 C 285.051 182.821,285.264 182.547,285.264 182.213 C 285.264 181.824,285.520 181.565,285.973 181.496 C 286.363 181.436,286.647 181.214,286.604 181.001 C 286.560 180.789,286.738 180.615,286.998 180.615 C 287.258 180.615,287.470 180.402,287.470 180.142 C 287.470 179.882,287.683 179.669,287.943 179.669 C 288.206 179.669,288.416 179.389,288.416 179.039 C 288.416 178.692,288.558 178.408,288.731 178.408 C 288.905 178.408,289.046 178.550,289.046 178.723 C 289.046 178.897,289.197 179.039,289.380 179.039 C 289.564 179.039,289.633 178.907,289.533 178.745 C 289.433 178.584,289.498 178.361,289.677 178.251 C 289.856 178.140,289.921 177.917,289.821 177.756 C 289.721 177.595,289.861 177.463,290.131 177.463 C 290.401 177.463,290.623 177.250,290.623 176.990 C 290.623 176.730,290.835 176.517,291.095 176.517 C 291.358 176.517,291.568 176.237,291.568 175.887 C 291.568 175.536,291.778 175.256,292.041 175.256 C 292.301 175.256,292.514 175.043,292.514 174.783 C 292.514 174.521,292.794 174.310,293.144 174.310 C 293.494 174.310,293.775 174.100,293.775 173.838 C 293.775 173.578,293.987 173.365,294.247 173.365 C 294.507 173.365,294.720 173.213,294.720 173.027 C 294.720 172.841,294.940 172.470,295.208 172.202 C 295.476 171.933,295.611 171.628,295.506 171.524 C 295.402 171.420,295.184 171.543,295.023 171.798 C 294.777 172.187,294.729 172.173,294.725 171.710 C 294.722 171.407,294.933 171.158,295.193 171.158 C 295.453 171.158,295.666 170.946,295.666 170.686 C 295.666 170.423,295.946 170.213,296.296 170.213 C 296.807 170.213,296.927 170.003,296.927 169.110 C 296.927 168.339,297.069 168.006,297.400 168.006 C 297.660 168.006,297.872 167.794,297.872 167.533 C 297.872 167.273,298.085 167.061,298.345 167.061 C 298.675 167.061,298.818 166.728,298.818 165.957 C 298.818 165.064,298.938 164.854,299.448 164.854 C 299.905 164.854,300.079 164.644,300.079 164.092 C 300.079 162.900,300.422 162.186,300.748 162.700 C 300.913 162.960,301.017 162.490,301.020 161.466 C 301.023 160.207,301.138 159.811,301.497 159.811 C 301.854 159.811,301.970 159.428,301.970 158.256 C 301.970 156.978,302.082 156.666,302.600 156.501 C 303.145 156.328,303.231 156.024,303.231 154.273 C 303.231 152.681,303.332 152.246,303.704 152.246 C 304.114 152.246,304.177 150.896,304.177 141.992 C 304.177 133.168,304.111 131.712,303.704 131.556 C 303.355 131.422,303.231 130.872,303.231 129.465 C 303.231 128.414,303.143 127.642,303.036 127.750 C 302.586 128.200,301.970 126.977,301.970 125.633 C 301.970 124.563,301.849 124.192,301.497 124.192 C 301.167 124.192,301.024 123.860,301.024 123.089 C 301.024 122.319,300.882 121.986,300.552 121.986 C 300.236 121.986,300.079 121.671,300.079 121.040 C 300.079 120.305,299.939 120.095,299.448 120.095 C 298.938 120.095,298.818 119.884,298.818 118.991 C 298.818 118.221,298.675 117.888,298.345 117.888 C 298.015 117.888,297.872 117.555,297.872 116.785 C 297.872 116.014,297.730 115.682,297.400 115.682 C 297.108 115.682,296.927 115.386,296.927 114.912 C 296.927 114.489,296.761 114.040,296.558 113.915 C 296.310 113.762,296.255 113.859,296.390 114.211 C 296.522 114.554,296.431 114.736,296.129 114.736 C 295.810 114.736,295.666 114.393,295.666 113.633 C 295.666 112.862,295.523 112.530,295.193 112.530 C 294.933 112.530,294.720 112.317,294.720 112.057 C 294.720 111.797,294.507 111.584,294.247 111.584 C 293.847 111.584,293.606 110.823,293.731 109.948 C 293.748 109.829,293.481 109.642,293.138 109.533 C 292.795 109.424,292.514 109.132,292.514 108.883 C 292.514 108.635,292.301 108.432,292.041 108.432 C 291.781 108.432,291.568 108.219,291.568 107.959 C 291.568 107.699,291.355 107.486,291.095 107.486 C 290.833 107.486,290.623 107.206,290.623 106.856 C 290.623 106.509,290.425 106.225,290.183 106.225 C 289.942 106.225,289.663 106.013,289.563 105.753 C 289.463 105.493,289.164 105.280,288.899 105.280 C 288.633 105.280,288.416 105.067,288.416 104.807 C 288.416 104.547,288.203 104.334,287.943 104.334 C 287.683 104.334,287.470 104.137,287.470 103.895 C 287.470 103.413,286.808 103.073,285.869 103.073 C 285.536 103.073,285.264 102.861,285.264 102.600 C 285.264 102.340,285.051 102.128,284.791 102.128 C 284.531 102.128,284.318 101.915,284.318 101.655 C 284.318 101.395,284.106 101.182,283.846 101.182 C 283.586 101.182,283.373 100.984,283.373 100.743 C 283.373 100.261,282.710 99.921,281.771 99.921 C 281.438 99.921,281.166 99.708,281.166 99.448 C 281.166 99.188,281.014 98.976,280.829 98.976 C 280.643 98.976,280.278 98.763,280.018 98.503 C 279.758 98.243,279.201 98.030,278.780 98.030 C 278.309 98.030,278.014 97.848,278.014 97.557 C 278.014 97.227,277.681 97.084,276.911 97.084 C 276.018 97.084,275.808 96.964,275.808 96.454 C 275.808 95.908,275.598 95.823,274.232 95.823 C 273.041 95.823,272.656 95.708,272.656 95.351 C 272.656 94.993,272.270 94.878,271.080 94.878 C 269.889 94.878,269.504 94.762,269.504 94.405 C 269.504 94.049,269.121 93.932,267.954 93.932 C 267.009 93.932,266.342 93.778,266.245 93.538 C 266.118 93.223,266.081 93.223,266.061 93.538 C 266.019 94.198,265.406 93.977,265.406 93.302 C 265.406 92.684,265.196 92.671,254.531 92.671 C 243.867 92.671,243.656 92.684,243.656 93.302 C 243.656 93.862,243.438 93.935,241.686 93.957 C 240.603 93.971,239.894 94.054,240.110 94.141 C 241.005 94.502,240.402 94.878,238.928 94.878 C 237.738 94.878,237.352 94.993,237.352 95.351 C 237.352 95.708,236.967 95.823,235.776 95.823 C 234.410 95.823,234.200 95.908,234.200 96.454 C 234.200 96.964,233.990 97.084,233.097 97.084 C 232.326 97.084,231.994 97.227,231.994 97.557 C 231.994 97.887,231.661 98.030,230.890 98.030 C 230.120 98.030,229.787 98.173,229.787 98.503 C 229.787 98.763,229.574 98.976,229.314 98.976 C 229.054 98.976,228.842 99.188,228.842 99.448 C 228.842 99.767,228.523 99.921,227.866 99.921 C 227.156 99.921,226.847 100.093,226.726 100.552 C 226.636 100.898,226.365 101.182,226.126 101.182 C 225.886 101.182,225.690 101.395,225.690 101.655 C 225.690 101.985,225.357 102.128,224.586 102.128 C 223.816 102.128,223.483 102.270,223.483 102.600 C 223.483 102.861,223.270 103.073,223.010 103.073 C 222.748 103.073,222.537 103.353,222.537 103.704 C 222.537 104.054,222.327 104.334,222.065 104.334 C 221.805 104.334,221.592 104.547,221.592 104.807 C 221.592 105.070,221.312 105.280,220.961 105.280 C 220.611 105.280,220.331 105.490,220.331 105.753 C 220.331 106.013,220.118 106.225,219.858 106.225 C 219.595 106.225,219.385 106.506,219.385 106.856 C 219.385 107.206,219.175 107.486,218.913 107.486 C 218.652 107.486,218.440 107.699,218.440 107.959 C 218.440 108.219,218.227 108.432,217.967 108.432 C 217.707 108.432,217.494 108.645,217.494 108.905 C 217.494 109.167,217.214 109.377,216.864 109.377 C 216.443 109.377,216.233 109.588,216.233 110.008 C 216.233 110.358,216.023 110.638,215.760 110.638 C 215.500 110.638,215.288 110.851,215.288 111.111 C 215.288 111.371,215.075 111.584,214.815 111.584 C 214.555 111.584,214.342 111.797,214.342 112.057 C 214.342 112.319,214.062 112.530,213.712 112.530 C 213.291 112.530,213.081 112.740,213.081 113.160 C 213.081 113.510,212.871 113.790,212.608 113.790 C 212.348 113.790,212.136 114.003,212.136 114.263 C 212.136 114.523,211.923 114.736,211.663 114.736 C 211.403 114.736,211.190 114.949,211.190 115.209 C 211.190 115.471,210.910 115.682,210.559 115.682 C 210.139 115.682,209.929 115.892,209.929 116.312 C 209.929 116.662,209.719 116.942,209.456 116.942 C 209.196 116.942,208.983 117.155,208.983 117.415 C 208.983 117.675,208.771 117.888,208.511 117.888 C 208.251 117.888,208.038 118.101,208.038 118.361 C 208.038 118.624,207.758 118.834,207.407 118.834 C 206.987 118.834,206.777 119.044,206.777 119.464 C 206.777 119.814,206.567 120.095,206.304 120.095 C 206.044 120.095,205.831 120.307,205.831 120.567 C 205.831 120.827,205.619 121.040,205.359 121.040 C 205.099 121.040,204.886 121.253,204.886 121.513 C 204.886 121.776,204.606 121.986,204.255 121.986 C 203.835 121.986,203.625 122.196,203.625 122.616 C 203.625 122.966,203.415 123.247,203.152 123.247 C 202.892 123.247,202.679 123.459,202.679 123.719 C 202.679 123.980,202.467 124.192,202.206 124.192 C 201.946 124.192,201.734 124.405,201.734 124.665 C 201.734 124.928,201.453 125.138,201.103 125.138 C 200.683 125.138,200.473 125.348,200.473 125.768 C 200.473 126.119,200.263 126.399,200.000 126.399 C 199.740 126.399,199.527 126.612,199.527 126.872 C 199.527 127.132,199.314 127.344,199.054 127.344 C 198.794 127.344,198.582 127.557,198.582 127.817 C 198.582 128.147,198.249 128.290,197.478 128.290 C 196.708 128.290,196.375 128.147,196.375 127.817 C 196.375 127.557,196.178 127.344,195.936 127.344 C 195.695 127.344,195.415 127.132,195.315 126.872 C 195.216 126.612,194.917 126.399,194.651 126.399 C 194.386 126.399,194.169 126.240,194.169 126.046 C 194.169 125.588,191.827 123.247,191.369 123.247 C 191.175 123.247,191.017 123.029,191.017 122.764 C 191.017 122.498,190.804 122.200,190.544 122.100 C 190.284 122.000,190.071 121.721,190.071 121.479 C 190.071 121.238,189.858 121.040,189.598 121.040 C 189.338 121.040,189.125 120.827,189.125 120.567 C 189.125 120.305,188.845 120.095,188.495 120.095 C 188.075 120.095,187.864 119.884,187.864 119.464 C 187.864 119.114,187.654 118.834,187.392 118.834 C 187.132 118.834,186.919 118.621,186.919 118.361 C 186.919 118.101,186.706 117.888,186.446 117.888 C 186.186 117.888,185.973 117.675,185.973 117.415 C 185.973 117.153,185.693 116.942,185.343 116.942 C 184.923 116.942,184.712 116.732,184.712 116.312 C 184.712 115.962,184.502 115.682,184.240 115.682 C 183.980 115.682,183.767 115.469,183.767 115.209 C 183.767 114.949,183.569 114.736,183.328 114.736 C 183.086 114.736,182.807 114.523,182.707 114.263 C 182.607 114.003,182.308 113.790,182.043 113.790 C 181.770 113.790,181.560 113.516,181.560 113.160 C 181.560 112.810,181.350 112.530,181.087 112.530 C 180.827 112.530,180.615 112.317,180.615 112.057 C 180.615 111.797,180.402 111.584,180.142 111.584 C 179.882 111.584,179.669 111.371,179.669 111.111 C 179.669 110.848,179.389 110.638,179.039 110.638 C 178.618 110.638,178.408 110.428,178.408 110.008 C 178.408 109.658,178.198 109.377,177.935 109.377 C 177.675 109.377,177.463 109.165,177.463 108.905 C 177.463 108.645,177.250 108.432,176.990 108.432 C 176.730 108.432,176.517 108.219,176.517 107.959 C 176.517 107.696,176.237 107.486,175.887 107.486 C 175.466 107.486,175.256 107.276,175.256 106.856 C 175.256 106.509,175.107 106.225,174.926 106.225 C 174.744 106.225,174.234 105.835,173.792 105.359 C 172.977 104.479,172.905 104.443,171.789 104.374 C 171.382 104.348,171.158 104.111,171.158 103.704 C 171.158 103.353,170.948 103.073,170.686 103.073 C 170.426 103.073,170.213 102.861,170.213 102.600 C 170.213 102.340,170.000 102.128,169.740 102.128 C 169.480 102.128,169.267 101.915,169.267 101.655 C 169.267 101.395,169.000 101.182,168.673 101.182 C 168.345 101.182,168.006 100.901,167.915 100.552 C 167.804 100.126,167.485 99.921,166.933 99.921 C 166.416 99.921,166.115 99.747,166.115 99.448 C 166.115 99.118,165.782 98.976,165.012 98.976 C 164.241 98.976,163.909 98.833,163.909 98.503 C 163.909 98.243,163.711 98.030,163.470 98.030 C 163.228 98.030,162.949 97.817,162.849 97.557 C 162.725 97.233,162.218 97.084,161.239 97.084 C 160.021 97.084,159.811 96.992,159.811 96.454 C 159.811 95.944,159.601 95.823,158.708 95.823 C 157.937 95.823,157.604 95.681,157.604 95.351 C 157.604 94.993,157.219 94.878,156.028 94.878 C 154.838 94.878,154.452 94.762,154.452 94.405 C 154.452 94.033,154.015 93.932,152.403 93.932 C 150.565 93.932,150.355 93.868,150.355 93.302 C 150.355 92.684,150.144 92.671,139.450 92.671 C 128.811 92.671,128.542 92.687,128.381 93.302 " stroke="none" fill="#1cbcf4" fill-rule="evenodd"></path><path id="path1" d="M265.406 93.312 C 265.406 94.029,265.888 94.143,266.140 93.486 C 266.235 93.240,266.108 92.961,265.859 92.865 C 265.560 92.750,265.406 92.902,265.406 93.312 M239.437 94.425 C 239.322 94.724,239.474 94.878,239.884 94.878 C 240.601 94.878,240.715 94.396,240.058 94.143 C 239.812 94.049,239.533 94.176,239.437 94.425 M121.259 95.079 C 121.007 95.331,121.292 95.823,121.689 95.823 C 121.852 95.823,121.986 95.611,121.986 95.351 C 121.986 94.863,121.614 94.724,121.259 95.079 M159.811 96.506 C 159.811 96.824,159.993 97.084,160.216 97.084 C 160.439 97.084,160.621 96.824,160.621 96.506 C 160.621 96.189,160.439 95.929,160.216 95.929 C 159.993 95.929,159.811 96.189,159.811 96.506 M295.666 114.263 C 295.666 114.523,295.874 114.736,296.129 114.736 C 296.411 114.736,296.521 114.551,296.410 114.263 C 296.310 114.003,296.102 113.790,295.947 113.790 C 295.793 113.790,295.666 114.003,295.666 114.263 M89.713 148.601 C 89.808 148.850,90.088 148.977,90.333 148.883 C 90.991 148.630,90.877 148.148,90.160 148.148 C 89.750 148.148,89.598 148.302,89.713 148.601 M90.780 154.873 C 90.780 155.104,90.993 155.293,91.253 155.293 C 91.513 155.293,91.726 155.104,91.726 154.873 C 91.726 154.641,91.513 154.452,91.253 154.452 C 90.993 154.452,90.780 154.641,90.780 154.873 M93.188 161.229 C 93.288 161.489,93.496 161.702,93.651 161.702 C 93.806 161.702,93.932 161.489,93.932 161.229 C 93.932 160.969,93.724 160.757,93.469 160.757 C 93.187 160.757,93.077 160.941,93.188 161.229 M183.767 167.533 C 183.767 167.794,183.554 168.006,183.294 168.006 C 182.964 168.006,182.821 168.339,182.821 169.110 C 182.821 169.880,182.679 170.213,182.348 170.213 C 182.088 170.213,181.875 170.426,181.875 170.686 C 181.875 170.948,181.595 171.158,181.245 171.158 C 180.735 171.158,180.615 171.369,180.615 172.262 C 180.615 173.032,180.472 173.365,180.142 173.365 C 179.812 173.365,179.669 173.698,179.669 174.468 C 179.669 175.239,179.526 175.571,179.196 175.571 C 178.881 175.571,178.723 175.887,178.723 176.517 C 178.723 177.252,178.583 177.463,178.093 177.463 C 177.583 177.463,177.463 177.673,177.463 178.566 C 177.463 179.336,177.320 179.669,176.990 179.669 C 176.660 179.669,176.517 180.002,176.517 180.772 C 176.517 181.543,176.374 181.875,176.044 181.875 C 175.729 181.875,175.571 182.191,175.571 182.821 C 175.571 183.557,175.431 183.767,174.941 183.767 C 174.431 183.767,174.310 183.977,174.310 184.870 C 174.310 185.640,174.168 185.973,173.838 185.973 C 173.578 185.973,173.365 186.186,173.365 186.446 C 173.365 186.706,173.152 186.919,172.892 186.919 C 172.562 186.919,172.419 187.252,172.419 188.022 C 172.419 188.915,172.299 189.125,171.789 189.125 C 171.278 189.125,171.158 189.335,171.158 190.229 C 171.158 191.244,171.083 191.332,170.213 191.332 C 169.582 191.332,169.267 191.489,169.267 191.805 C 169.267 192.162,168.882 192.277,167.691 192.277 C 166.500 192.277,166.115 192.393,166.115 192.750 C 166.115 193.166,163.401 193.223,143.578 193.223 L 121.040 193.223 121.040 194.179 C 121.040 194.737,121.237 195.209,121.513 195.315 C 121.773 195.415,121.986 195.695,121.986 195.936 C 121.986 196.178,122.270 196.375,122.616 196.375 C 122.966 196.375,123.247 196.585,123.247 196.848 C 123.247 197.108,123.459 197.321,123.719 197.321 C 123.982 197.321,124.192 197.601,124.192 197.951 C 124.192 198.301,124.402 198.582,124.665 198.582 C 124.925 198.582,125.138 198.794,125.138 199.054 C 125.138 199.317,125.418 199.527,125.768 199.527 C 126.119 199.527,126.399 199.737,126.399 200.000 C 126.399 200.260,126.612 200.473,126.872 200.473 C 127.134 200.473,127.344 200.753,127.344 201.103 C 127.344 201.453,127.555 201.734,127.817 201.734 C 128.077 201.734,128.290 201.946,128.290 202.206 C 128.290 202.467,128.503 202.679,128.763 202.679 C 129.023 202.679,129.236 202.892,129.236 203.152 C 129.236 203.415,129.516 203.625,129.866 203.625 C 130.286 203.625,130.496 203.835,130.496 204.255 C 130.496 204.606,130.707 204.886,130.969 204.886 C 131.229 204.886,131.442 205.099,131.442 205.359 C 131.442 205.619,131.655 205.831,131.915 205.831 C 132.175 205.831,132.388 206.044,132.388 206.304 C 132.388 206.567,132.668 206.777,133.018 206.777 C 133.368 206.777,133.649 206.987,133.649 207.250 C 133.649 207.510,133.861 207.723,134.121 207.723 C 134.384 207.723,134.594 208.003,134.594 208.353 C 134.594 208.703,134.804 208.983,135.067 208.983 C 135.327 208.983,135.540 209.196,135.540 209.456 C 135.540 209.719,135.820 209.929,136.170 209.929 C 136.520 209.929,136.801 210.139,136.801 210.402 C 136.801 210.662,137.013 210.875,137.273 210.875 C 137.536 210.875,137.746 211.155,137.746 211.505 C 137.746 211.855,137.956 212.136,138.219 212.136 C 138.479 212.136,138.692 212.348,138.692 212.608 C 138.692 212.871,138.972 213.081,139.322 213.081 C 139.673 213.081,139.953 213.291,139.953 213.554 C 139.953 213.814,140.165 214.027,140.426 214.027 C 140.688 214.027,140.898 214.307,140.898 214.657 C 140.898 215.007,141.108 215.288,141.371 215.288 C 141.631 215.288,141.844 215.500,141.844 215.760 C 141.844 216.023,142.124 216.233,142.474 216.233 C 142.825 216.233,143.105 216.443,143.105 216.706 C 143.105 216.966,143.318 217.179,143.578 217.179 C 143.840 217.179,144.050 217.459,144.050 217.809 C 144.050 218.160,144.261 218.440,144.523 218.440 C 144.783 218.440,144.996 218.652,144.996 218.913 C 144.996 219.175,145.276 219.385,145.626 219.385 C 145.977 219.385,146.257 219.595,146.257 219.858 C 146.257 220.118,146.470 220.331,146.730 220.331 C 146.992 220.331,147.203 220.611,147.203 220.961 C 147.203 221.312,147.413 221.592,147.675 221.592 C 147.935 221.592,148.148 221.805,148.148 222.065 C 148.148 222.327,148.428 222.537,148.779 222.537 C 149.129 222.537,149.409 222.748,149.409 223.010 C 149.409 223.270,149.622 223.483,149.882 223.483 C 150.144 223.483,150.355 223.763,150.355 224.113 C 150.355 224.464,150.565 224.744,150.827 224.744 C 151.087 224.744,151.300 224.957,151.300 225.217 C 151.300 225.479,151.580 225.690,151.931 225.690 C 152.281 225.690,152.561 225.900,152.561 226.162 C 152.561 226.422,152.774 226.635,153.034 226.635 C 153.297 226.635,153.507 226.915,153.507 227.266 C 153.507 227.616,153.717 227.896,153.980 227.896 C 154.240 227.896,154.452 228.109,154.452 228.369 C 154.452 228.631,154.733 228.842,155.083 228.842 C 155.433 228.842,155.713 229.052,155.713 229.314 C 155.713 229.574,155.926 229.787,156.186 229.787 C 156.449 229.787,156.659 230.067,156.659 230.418 C 156.659 230.768,156.869 231.048,157.132 231.048 C 157.392 231.048,157.604 231.261,157.604 231.521 C 157.604 231.781,157.817 231.994,158.077 231.994 C 158.337 231.994,158.550 232.206,158.550 232.467 C 158.550 232.729,158.830 232.939,159.180 232.939 C 159.601 232.939,159.811 233.149,159.811 233.570 C 159.811 233.920,160.021 234.200,160.284 234.200 C 160.544 234.200,160.757 234.413,160.757 234.673 C 160.757 234.933,160.969 235.146,161.229 235.146 C 161.489 235.146,161.702 235.359,161.702 235.619 C 161.702 235.881,161.982 236.091,162.333 236.091 C 162.683 236.091,162.963 236.302,162.963 236.564 C 162.963 236.824,163.176 237.037,163.436 237.037 C 163.698 237.037,163.909 237.317,163.909 237.667 C 163.909 238.018,164.119 238.298,164.381 238.298 C 164.641 238.298,164.854 238.511,164.854 238.771 C 164.854 239.033,165.134 239.243,165.485 239.243 C 165.835 239.243,166.115 239.454,166.115 239.716 C 166.115 239.976,166.328 240.189,166.588 240.189 C 166.851 240.189,167.061 240.469,167.061 240.820 C 167.061 241.170,167.271 241.450,167.533 241.450 C 167.794 241.450,168.006 241.663,168.006 241.923 C 168.006 242.185,168.286 242.396,168.637 242.396 C 168.987 242.396,169.267 242.606,169.267 242.868 C 169.267 243.128,169.480 243.341,169.740 243.341 C 170.003 243.341,170.213 243.621,170.213 243.972 C 170.213 244.322,170.423 244.602,170.686 244.602 C 170.946 244.602,171.158 244.815,171.158 245.075 C 171.158 245.338,171.439 245.548,171.789 245.548 C 172.139 245.548,172.419 245.758,172.419 246.020 C 172.419 246.281,172.632 246.493,172.892 246.493 C 173.155 246.493,173.365 246.773,173.365 247.124 C 173.365 247.474,173.575 247.754,173.838 247.754 C 174.098 247.754,174.310 247.967,174.310 248.227 C 174.310 248.490,174.591 248.700,174.941 248.700 C 175.291 248.700,175.571 248.910,175.571 249.173 C 175.571 249.433,175.784 249.645,176.044 249.645 C 176.304 249.645,176.517 249.863,176.517 250.128 C 176.517 250.394,176.730 250.692,176.990 250.792 C 177.250 250.892,177.463 251.171,177.463 251.413 C 177.463 251.704,177.833 251.852,178.566 251.852 C 179.336 251.852,179.669 251.994,179.669 252.325 C 179.669 252.655,180.002 252.797,180.772 252.797 C 181.665 252.797,181.875 252.918,181.875 253.428 C 181.875 253.918,182.086 254.058,182.821 254.058 C 183.452 254.058,183.767 254.216,183.767 254.531 C 183.767 254.888,184.152 255.004,185.343 255.004 C 186.534 255.004,186.919 255.120,186.919 255.477 C 186.919 255.848,187.353 255.950,188.931 255.950 C 190.678 255.950,190.965 256.033,191.108 256.580 C 191.266 257.183,191.538 257.210,197.449 257.210 C 203.415 257.210,203.625 257.189,203.625 256.580 C 203.625 256.034,203.835 255.950,205.201 255.950 C 206.392 255.950,206.777 255.834,206.777 255.477 C 206.777 255.120,207.162 255.004,208.353 255.004 C 209.544 255.004,209.929 254.888,209.929 254.531 C 209.929 254.213,210.248 254.058,210.904 254.058 C 211.614 254.058,211.924 253.887,212.044 253.428 C 212.161 252.981,212.474 252.797,213.118 252.797 C 213.716 252.797,214.027 252.636,214.027 252.325 C 214.027 251.994,214.360 251.852,215.130 251.852 C 215.901 251.852,216.233 251.709,216.233 251.379 C 216.233 251.119,216.446 250.906,216.706 250.906 C 216.969 250.906,217.179 250.626,217.179 250.276 C 217.179 249.856,217.389 249.645,217.809 249.645 C 218.160 249.645,218.440 249.435,218.440 249.173 C 218.440 248.913,218.652 248.700,218.913 248.700 C 219.173 248.700,219.385 248.487,219.385 248.227 C 219.385 247.897,219.718 247.754,220.489 247.754 C 221.382 247.754,221.592 247.634,221.592 247.124 C 221.592 246.773,221.802 246.493,222.065 246.493 C 222.325 246.493,222.537 246.281,222.537 246.020 C 222.537 245.760,222.750 245.548,223.010 245.548 C 223.270 245.548,223.483 245.335,223.483 245.075 C 223.483 244.812,223.763 244.602,224.113 244.602 C 224.534 244.602,224.744 244.392,224.744 243.972 C 224.744 243.621,224.954 243.341,225.217 243.341 C 225.477 243.341,225.690 243.128,225.690 242.868 C 225.690 242.608,225.902 242.396,226.162 242.396 C 226.422 242.396,226.635 242.183,226.635 241.923 C 226.635 241.660,226.915 241.450,227.266 241.450 C 227.686 241.450,227.896 241.240,227.896 240.820 C 227.896 240.469,228.106 240.189,228.369 240.189 C 228.629 240.189,228.842 239.976,228.842 239.716 C 228.842 239.456,229.054 239.243,229.314 239.243 C 229.574 239.243,229.787 239.031,229.787 238.771 C 229.787 238.511,230.000 238.298,230.260 238.298 C 230.523 238.298,230.733 238.018,230.733 237.667 C 230.733 237.247,230.943 237.037,231.363 237.037 C 231.714 237.037,231.994 236.827,231.994 236.564 C 231.994 236.304,232.206 236.091,232.467 236.091 C 232.727 236.091,232.939 235.879,232.939 235.619 C 232.939 235.359,233.152 235.146,233.412 235.146 C 233.672 235.146,233.885 234.933,233.885 234.673 C 233.885 234.410,234.165 234.200,234.515 234.200 C 234.936 234.200,235.146 233.990,235.146 233.570 C 235.146 233.220,235.356 232.939,235.619 232.939 C 235.934 232.939,236.091 232.624,236.091 231.994 C 236.091 231.363,236.249 231.048,236.564 231.048 C 236.827 231.048,237.037 230.768,237.037 230.418 C 237.037 229.997,237.247 229.787,237.667 229.787 C 238.018 229.787,238.298 229.577,238.298 229.314 C 238.298 229.054,238.511 228.842,238.771 228.842 C 239.031 228.842,239.243 228.629,239.243 228.369 C 239.243 228.109,239.456 227.896,239.716 227.896 C 239.979 227.896,240.189 227.616,240.189 227.266 C 240.189 226.845,240.399 226.635,240.820 226.635 C 241.170 226.635,241.450 226.425,241.450 226.162 C 241.450 225.902,241.663 225.690,241.923 225.690 C 242.183 225.690,242.396 225.477,242.396 225.217 C 242.396 224.957,242.608 224.744,242.868 224.744 C 243.131 224.744,243.341 224.464,243.341 224.113 C 243.341 223.693,243.551 223.483,243.972 223.483 C 244.322 223.483,244.602 223.273,244.602 223.010 C 244.602 222.750,244.815 222.537,245.075 222.537 C 245.335 222.537,245.548 222.325,245.548 222.065 C 245.548 221.805,245.760 221.592,246.020 221.592 C 246.283 221.592,246.493 221.312,246.493 220.961 C 246.493 220.541,246.703 220.331,247.124 220.331 C 247.474 220.331,247.754 220.121,247.754 219.858 C 247.754 219.598,247.967 219.385,248.227 219.385 C 248.487 219.385,248.700 219.173,248.700 218.913 C 248.700 218.652,248.913 218.440,249.173 218.440 C 249.435 218.440,249.645 218.160,249.645 217.809 C 249.645 217.389,249.856 217.179,250.276 217.179 C 250.626 217.179,250.906 216.969,250.906 216.706 C 250.906 216.446,251.119 216.233,251.379 216.233 C 251.639 216.233,251.852 216.020,251.852 215.760 C 251.852 215.500,252.065 215.288,252.325 215.288 C 252.587 215.288,252.797 215.007,252.797 214.657 C 252.797 214.237,253.008 214.027,253.428 214.027 C 253.778 214.027,254.058 213.817,254.058 213.554 C 254.058 213.294,254.271 213.081,254.531 213.081 C 254.791 213.081,255.004 212.868,255.004 212.608 C 255.004 212.348,255.217 212.136,255.477 212.136 C 255.739 212.136,255.950 211.855,255.950 211.505 C 255.950 211.085,256.160 210.875,256.580 210.875 C 256.930 210.875,257.210 210.665,257.210 210.402 C 257.210 210.142,257.423 209.929,257.683 209.929 C 257.943 209.929,258.156 209.716,258.156 209.456 C 258.156 209.196,258.369 208.983,258.629 208.983 C 258.892 208.983,259.102 208.703,259.102 208.353 C 259.102 207.933,259.312 207.723,259.732 207.723 C 260.082 207.723,260.362 207.512,260.362 207.250 C 260.362 206.990,260.575 206.777,260.835 206.777 C 261.095 206.777,261.308 206.564,261.308 206.304 C 261.308 206.044,261.521 205.831,261.781 205.831 C 262.041 205.831,262.254 205.619,262.254 205.359 C 262.254 205.099,262.467 204.886,262.727 204.886 C 262.989 204.886,263.199 204.606,263.199 204.255 C 263.199 203.835,263.410 203.625,263.830 203.625 C 264.180 203.625,264.460 203.415,264.460 203.152 C 264.460 202.892,264.673 202.679,264.933 202.679 C 265.193 202.679,265.406 202.467,265.406 202.206 C 265.406 201.946,265.619 201.734,265.879 201.734 C 266.141 201.734,266.351 201.453,266.351 201.103 C 266.351 200.683,266.562 200.473,266.982 200.473 C 267.332 200.473,267.612 200.263,267.612 200.000 C 267.612 199.740,267.825 199.527,268.085 199.527 C 268.345 199.527,268.558 199.314,268.558 199.054 C 268.558 198.794,268.771 198.582,269.031 198.582 C 269.293 198.582,269.504 198.301,269.504 197.951 C 269.504 197.531,269.714 197.321,270.134 197.321 C 270.484 197.321,270.764 197.111,270.764 196.848 C 270.764 196.588,270.977 196.375,271.237 196.375 C 271.497 196.375,271.710 196.162,271.710 195.902 C 271.710 195.642,271.923 195.429,272.183 195.429 C 272.513 195.429,272.656 195.097,272.656 194.326 L 272.656 193.223 251.852 193.223 L 231.048 193.223 231.048 194.326 C 231.048 195.219,230.928 195.429,230.418 195.429 C 229.933 195.429,229.787 195.640,229.787 196.341 C 229.787 196.861,229.584 197.331,229.314 197.435 C 229.038 197.541,228.842 198.013,228.842 198.572 C 228.842 199.211,228.685 199.527,228.369 199.527 C 228.039 199.527,227.896 199.860,227.896 200.630 C 227.896 201.524,227.776 201.734,227.266 201.734 C 226.915 201.734,226.635 201.944,226.635 202.206 C 226.635 202.467,226.422 202.679,226.162 202.679 C 225.832 202.679,225.690 203.012,225.690 203.783 C 225.690 204.553,225.547 204.886,225.217 204.886 C 224.906 204.886,224.744 205.197,224.744 205.795 C 224.744 206.438,224.560 206.752,224.113 206.868 C 223.654 206.988,223.483 207.298,223.483 208.008 C 223.483 208.665,223.329 208.983,223.010 208.983 C 222.680 208.983,222.537 209.316,222.537 210.087 C 222.537 210.857,222.395 211.190,222.065 211.190 C 221.749 211.190,221.592 211.505,221.592 212.136 C 221.592 212.871,221.452 213.081,220.961 213.081 C 220.451 213.081,220.331 213.291,220.331 214.184 C 220.331 214.955,220.188 215.288,219.858 215.288 C 219.598 215.288,219.385 215.500,219.385 215.760 C 219.385 216.020,219.173 216.233,218.913 216.233 C 218.582 216.233,218.440 216.566,218.440 217.336 C 218.440 218.107,218.297 218.440,217.967 218.440 C 217.637 218.440,217.494 218.772,217.494 219.543 C 217.494 220.436,217.374 220.646,216.864 220.646 C 216.513 220.646,216.233 220.856,216.233 221.119 C 216.233 221.379,216.020 221.592,215.760 221.592 C 215.500 221.592,215.288 221.805,215.288 222.065 C 215.288 222.325,215.075 222.537,214.815 222.537 C 214.552 222.537,214.342 222.818,214.342 223.168 C 214.342 223.749,214.132 223.798,211.663 223.798 C 209.194 223.798,208.983 223.749,208.983 223.168 C 208.983 222.748,208.773 222.537,208.353 222.537 C 208.003 222.537,207.723 222.327,207.723 222.065 C 207.723 221.805,207.510 221.592,207.250 221.592 C 206.990 221.592,206.777 221.379,206.777 221.119 C 206.777 220.859,206.564 220.646,206.304 220.646 C 205.947 220.646,205.831 220.261,205.831 219.070 C 205.831 217.704,205.747 217.494,205.201 217.494 C 204.691 217.494,204.571 217.284,204.571 216.391 C 204.571 215.620,204.428 215.288,204.098 215.288 C 203.740 215.288,203.625 214.902,203.625 213.712 C 203.625 212.521,203.509 212.136,203.152 212.136 C 202.822 212.136,202.679 211.803,202.679 211.032 C 202.679 210.139,202.559 209.929,202.049 209.929 C 201.502 209.929,201.418 209.719,201.418 208.353 C 201.418 207.162,201.303 206.777,200.946 206.777 C 200.588 206.777,200.473 206.392,200.473 205.201 C 200.473 204.010,200.357 203.625,200.000 203.625 C 199.685 203.625,199.527 203.310,199.527 202.679 C 199.527 202.049,199.370 201.734,199.054 201.734 C 198.697 201.734,198.582 201.348,198.582 200.158 C 198.582 198.792,198.498 198.582,197.951 198.582 C 197.441 198.582,197.321 198.371,197.321 197.478 C 197.321 196.708,197.178 196.375,196.848 196.375 C 196.491 196.375,196.375 195.990,196.375 194.799 C 196.375 193.608,196.260 193.223,195.902 193.223 C 195.587 193.223,195.429 192.908,195.429 192.277 C 195.429 191.542,195.289 191.332,194.799 191.332 C 194.253 191.332,194.169 191.122,194.169 189.756 C 194.169 188.565,194.053 188.180,193.696 188.180 C 193.366 188.180,193.223 187.847,193.223 187.076 C 193.223 186.306,193.080 185.973,192.750 185.973 C 192.399 185.973,192.277 185.602,192.277 184.525 C 192.277 183.342,192.162 183.047,191.647 182.912 C 191.125 182.776,191.017 182.483,191.017 181.208 C 191.017 180.050,190.899 179.669,190.544 179.669 C 190.227 179.669,190.071 179.353,190.071 178.714 C 190.071 178.155,189.875 177.683,189.598 177.577 C 189.275 177.453,189.125 176.947,189.125 175.981 C 189.125 174.832,189.007 174.536,188.495 174.402 C 188.048 174.285,187.864 173.972,187.864 173.328 C 187.864 172.730,187.703 172.419,187.392 172.419 C 187.034 172.419,186.919 172.034,186.919 170.843 C 186.919 169.652,186.803 169.267,186.446 169.267 C 186.116 169.267,185.973 168.934,185.973 168.164 C 185.973 167.113,185.921 167.061,184.870 167.061 C 184.099 167.061,183.767 167.203,183.767 167.533 M195.535 170.633 C 195.535 170.864,195.724 171.053,195.955 171.053 C 196.186 171.053,196.375 170.864,196.375 170.633 C 196.375 170.402,196.186 170.213,195.955 170.213 C 195.724 170.213,195.535 170.402,195.535 170.633 M289.779 177.670 C 289.893 177.784,289.826 178.071,289.630 178.308 C 289.349 178.645,289.378 178.697,289.766 178.549 C 290.475 178.276,290.716 177.463,290.087 177.463 C 289.804 177.463,289.665 177.556,289.779 177.670 M288.416 179.039 C 288.416 179.389,288.206 179.669,287.943 179.669 C 287.683 179.669,287.470 179.882,287.470 180.142 C 287.470 180.402,287.258 180.615,286.998 180.615 C 286.738 180.615,286.560 180.789,286.604 181.001 C 286.647 181.214,286.363 181.436,285.973 181.496 C 285.520 181.565,285.264 181.824,285.264 182.213 C 285.264 182.547,285.051 182.821,284.791 182.821 C 284.531 182.821,284.318 183.042,284.318 183.313 C 284.318 183.895,284.902 183.616,285.541 182.730 C 285.891 182.243,286.031 182.209,286.263 182.553 C 286.492 182.891,286.532 182.877,286.459 182.484 C 286.343 181.859,288.892 179.221,289.342 179.500 C 289.828 179.799,289.753 179.384,289.227 178.858 C 288.616 178.248,288.416 178.292,288.416 179.039 M225.690 186.436 C 225.690 186.718,225.874 186.828,226.162 186.718 C 226.422 186.618,226.635 186.410,226.635 186.255 C 226.635 186.100,226.422 185.973,226.162 185.973 C 225.902 185.973,225.690 186.182,225.690 186.436 M207.374 199.815 C 207.728 200.039,207.697 200.124,207.217 200.247 C 206.711 200.376,206.728 200.405,207.329 200.436 C 207.765 200.459,208.038 200.291,208.038 200.000 C 208.038 199.740,207.790 199.529,207.486 199.532 C 207.045 199.536,207.022 199.592,207.374 199.815 " stroke="none" fill="#7dfaa8" fill-rule="evenodd"></path></g></svg>