<svg width="313" height="301" viewBox="0 0 313 301" fill="none" xmlns="http://www.w3.org/2000/svg">
<path d="M228.51 0H227.76C197.92 0 171.53 15.79 156.35 39.09C141.17 15.79 114.78 0 84.94 0H84.19C61.7959 0.213409 40.3908 9.25601 24.6264 25.1627C8.86199 41.0695 0.0121568 62.5549 0 84.95C0 112.76 12.18 152.22 35.93 184.69C81.18 246.56 156.35 300.69 156.35 300.69C156.35 300.69 231.52 246.57 276.76 184.69C300.52 152.22 312.69 112.76 312.69 84.95C312.678 62.5566 303.829 41.0727 288.067 25.1662C272.305 9.25979 250.902 0.216027 228.51 0V0ZM217.78 189.45C214.382 189.437 211.066 188.397 208.27 186.466C205.473 184.535 203.326 181.803 202.11 178.63H184.27C183.095 178.623 181.952 178.249 181 177.56C180.048 176.872 179.335 175.903 178.96 174.79L173.48 158.28L156.14 218.87C155.802 220.036 155.095 221.062 154.125 221.792C153.155 222.522 151.974 222.918 150.76 222.92H150.41C149.143 222.859 147.935 222.365 146.989 221.52C146.043 220.676 145.415 219.532 145.21 218.28L127.34 110.8L114.28 174.4C113.981 175.608 113.285 176.681 112.304 177.448C111.324 178.215 110.115 178.631 108.87 178.63H83.74C82.9867 178.662 82.2347 178.541 81.5293 178.275C80.8239 178.008 80.1796 177.602 79.6353 177.08C79.091 176.559 78.6579 175.932 78.362 175.239C78.0661 174.545 77.9136 173.799 77.9136 173.045C77.9136 172.291 78.0661 171.545 78.362 170.851C78.6579 170.158 79.091 169.531 79.6353 169.01C80.1796 168.488 80.8239 168.082 81.5293 167.815C82.2347 167.549 82.9867 167.428 83.74 167.46H104.47L122.97 81.95C123.274 80.6858 124.007 79.5663 125.045 78.7829C126.083 77.9995 127.36 77.6009 128.659 77.6552C129.958 77.7096 131.198 78.2134 132.167 79.0807C133.136 79.948 133.773 81.1248 133.97 82.41L152.22 192.05L167.76 137.84C168.084 136.698 168.768 135.692 169.71 134.971C170.653 134.25 171.803 133.853 172.99 133.84H173.1C174.275 133.84 175.42 134.212 176.372 134.901C177.324 135.591 178.033 136.563 178.4 137.68L188.31 167.49H201.89C202.855 164.557 204.613 161.947 206.968 159.949C209.323 157.952 212.184 156.643 215.235 156.169C218.287 155.695 221.41 156.073 224.26 157.261C227.111 158.45 229.577 160.403 231.388 162.905C233.198 165.406 234.282 168.36 234.52 171.439C234.758 174.518 234.14 177.603 232.736 180.353C231.331 183.103 229.194 185.412 226.56 187.024C223.926 188.637 220.898 189.49 217.81 189.49L217.78 189.45Z" fill="#6C63FF"/>
</svg>
